<svg xmlns="http://www.w3.org/2000/svg" width="2480" height="2480">
  <defs>
    <filter id="outline">
      <feMorphology operator="dilate" in="SourceAlpha" radius="20"/>
      <feComposite in="SourceGraphic"/>
    </filter>
  </defs>

  <g id='background'
    filter='url(#outline)'
    transform='scale(.85)'
    transform-origin='center'>
    <path
      d='
        M524, 360
        c2180, 0, 2380, 800, 500, 1900
        Z
      '
      fill='#EEAC40'
      id='shape'
    />
    <use href='#shape' transform='rotate(20)' 
    transform-origin='center'/>
    <use href='#shape' transform='rotate(40)' 
    transform-origin='center'/>
    <use href='#shape' transform='rotate(60)' transform-origin='center'/>
    <use href='#shape' transform='rotate(80)' transform-origin='center'/>
    <use href='#shape' transform='rotate(100)' transform-origin='center'/>
    <use href='#shape' transform='rotate(120)' transform-origin='center'/>
    <use href='#shape' transform='rotate(140)' transform-origin='center'/>
    <use href='#shape' transform='rotate(160)' 
    transform-origin='center'/>
    <use href='#shape' transform='rotate(180)' transform-origin='center'/>
    <use href='#shape' transform='rotate(200)' transform-origin='center'/>
    <use href='#shape' transform='rotate(220)' transform-origin='center'/>
    <use href='#shape' transform='rotate(240)' transform-origin='center'/>
    <use href='#shape' transform='rotate(260)' transform-origin='center'/>
    <use href='#shape' transform='rotate(280)' transform-origin='center'/>
    <use href='#shape' transform='rotate(300)' transform-origin='center'/>
    <use href='#shape' transform='rotate(320)' 
    transform-origin='center'/>
    <use href='#shape' transform='rotate(340)' transform-origin='center'/>
  </g>
  <g id='details'
    transform='scale(1.75) translate(-620, -100)'>
    <path
      d="
        M1118.5 111.5c17.47-.746 34.81.421 52 3.5 21.63 7.428 40.79 18.928 57.5 34.5 11.09 13.176 18.76 28.176 23 45 2.14 13.722 1.81 27.389-1 41-51.76 2.22-101.93 12.386-150.5 30.5a1181.248 1181.248 0 0 0-57 31.5c-23.23-22.531-31.73-49.865-25.5-82 4.04-30.656 17.54-56.156 40.5-76.5a247.116 247.116 0 0 1 41-23c6.92-.979 13.58-2.479 20-4.5zM1732.5 188.5c39.27-.303 72.44 13.697 99.5 42 10.68 14.365 19.02 30.032 25 47 9.73 33.705 5.39 65.371-13 95-17.21 22.852-40.04 35.019-68.5 36.5a2427.765 2427.765 0 0 0-63-54 654.057 654.057 0 0 0-80.5-48.5c-6.21-33.375 2.29-62.208 25.5-86.5 22.05-17.697 47.05-28.197 75-31.5z
      "
      fill="#404040"
      stroke='#0D0D0D'
      stroke-width='16px'
    />
    <path
      d="
        M1622.5 392.5h-3c4.5 15.314 9 30.647 13.5 46 .67 4 .67 8 0 12-.84 1.507-2 2.007-3.5 1.5l-24-26a452.325 452.325 0 0 0-21-14.5c-.68.743-1.35 1.409-2 2-16.71-16.865-36.71-28.365-60-34.5a2538.752 2538.752 0 0 1-62-12 625.248 625.248 0 0 0-53-5 1309.064 1309.064 0 0 0-168-16.5c-3.84.215-7.68.548-11.5 1-48.24-4.914-96.41-4.747-144.5.5-37.68 5.575-67.51 23.742-89.5 54.5a1418.96 1418.96 0 0 0-26 54c-11.934 17.6-26.267 32.933-43 46-18.16 19.143-25.993 41.976-23.5 68.5a699.752 699.752 0 0 1 3 26c-1.01 50.386-22.676 88.719-65 115-31.756 17.102-58.923 11.602-81.5-16.5a64.735 64.735 0 0 0-6-9 306.883 306.883 0 0 1-7-27c-.565-22.875 6.769-42.875 22-60l36.5-28.5c11.982-9.965 19.815-22.465 23.5-37.5-1.506-42.172 13.327-77.339 44.5-105.5a727.96 727.96 0 0 0 55-30 1260.02 1260.02 0 0 1 35.5-46.5c20.56-18.862 44.73-30.695 72.5-35.5a1773.642 1773.642 0 0 1 70-39c69.15-25.228 140.48-34.561 214-28 37.08 1.985 74.08 4.985 111 9a818.852 818.852 0 0 1 99 22 2085.48 2085.48 0 0 0 69 23 548.42 548.42 0 0 0 56 28c14.67 9.333 29.33 18.667 44 28a1166.666 1166.666 0 0 1 62.5 52.5 191.88 191.88 0 0 0 27 30 141.544 141.544 0 0 1 19 34 347.349 347.349 0 0 1 10 65c4.47 16.799 13.97 29.966 28.5 39.5 15.3 13.124 26.8 28.957 34.5 47.5a83.516 83.516 0 0 1 2.5 17 545.645 545.645 0 0 1-4 38.5c1.52 16.572 7.36 31.405 17.5 44.5a177.146 177.146 0 0 1 19 43c1.85 16.215-.15 31.882-6 47-4.56 8.889-11.39 15.389-20.5 19.5-10.58 4.208-21.58 6.042-33 5.5a133.53 133.53 0 0 1-28-2.5c-17.94-5.534-36.27-7.534-55-6a51.432 51.432 0 0 0-11 3 386.053 386.053 0 0 0-16.5 9.5c-15.26-3.597-24.93-12.931-29-28-2.44-14.163-1.77-28.163 2-42 15.04-30.408 16.37-61.408 4-93a300.36 300.36 0 0 0-10-21 207.184 207.184 0 0 1-20-28 153.628 153.628 0 0 1-7.5-38c2.8-24.655 5.46-49.322 8-74-.52-21.085-4.69-41.418-12.5-61a674.527 674.527 0 0 0-22-44 266.562 266.562 0 0 0-26.5-28.5c-4.66-1.651-7.33-.151-8 4.5z
      "
      fill="#404040"
      stroke='#0D0D0D'
      stroke-width='16px'
    />
    <path
      d="
        M1752.5 854.5c10.15 15.775 14.32 33.108 12.5 52-2.17 4.846-6 7.346-11.5 7.5-1.62 1.117-2.62 2.617-3 4.5 4.43 10.784 7.1 21.951 8 33.5 1.62 7.555-1.04 12.555-8 15a12.088 12.088 0 0 1-3.5 4.5c-.67 1.667-.67 3.333 0 5a80.093 80.093 0 0 1 3.5 12h-4a1051.72 1051.72 0 0 0-105 2.5c-60.41 8.758-120.74 17.76-181 27-29.18 2.83-58.18 6-87 9.5-39.33-.72-78.67-1.55-118-2.5-26.98-2.47-53.98-4.47-81-6a1778.337 1778.337 0 0 1-170-36 3069.868 3069.868 0 0 1-103-32 937.99 937.99 0 0 1-92-40 345.122 345.122 0 0 1-32.5-22.5c-.611-8.618.723-16.952 4-25a287.45 287.45 0 0 1 13.5-29c-.693-4.651-3.359-6.151-8-4.5l-5.5 7.5-2-2a49.226 49.226 0 0 1 0-14c5.341-14.006 14.341-25.006 27-33 1.67-6.071-.497-8.904-6.5-8.5l-7.5 5.5c-4.135-4.936-5.468-10.603-4-17 3.244-14.727 10.744-26.727 22.5-36 14.504-2.917 28.171-8.084 41-15.5 24.157-16.15 41.657-37.65 52.5-64.5a682.915 682.915 0 0 1 9-28c3.076-17.369 3.076-34.702 0-52-4.157-32.847 7.677-58.014 35.5-75.5a805.79 805.79 0 0 0 20.5-22.5 545.678 545.678 0 0 0 16-27c7.375-22.599 19.21-42.432 35.5-59.5 7.67-5.667 15.33-11.333 23-17 13.18-6.948 27.18-11.281 42-13a593.514 593.514 0 0 1 90-3c42.31 2.857 84.65 4.523 127 5 34.2 2.836 68.2 7.169 102 13a699.386 699.386 0 0 1 122 19c33.26 11.048 57.1 32.548 71.5 64.5a277.49 277.49 0 0 0 9 25c4.19 16.439 6.19 33.105 6 50a2494.24 2494.24 0 0 0-9.5 79c.26 25.515 9.1 47.515 26.5 66a170.609 170.609 0 0 1 23 21c7.76 10.103 11.26 21.603 10.5 34.5-.09 6.201-.59 12.368-1.5 18.5a895.43 895.43 0 0 0-12 40c-2.5 19.165 1.5 36.831 12 53 20.68 23.794 45.84 30.294 75.5 19.5 5.05-2.857 10.05-5.691 15-8.5z
      "
      fill="#EEAE41"
    />
    <path
      d="
        M1622.5 392.5c-.12 1.984.55 3.65 2 5a191.48 191.48 0 0 1 28.5 33 535.728 535.728 0 0 0 18 40c7.56 20.009 10.56 40.676 9 62a511.751 511.751 0 0 1-6 42c-3.48 25.12.19 49.12 11 72a170.545 170.545 0 0 0 14 17c20.14 31.041 24.14 64.041 12 99-4.02 6.421-6.36 13.421-7 21-4.02 19.882-1.02 38.549 9 56 5.54 5.857 12.04 10.357 19.5 13.5-23.97 8.95-44.47 3.784-61.5-15.5-9.12-14.047-12.46-29.38-10-46 4.54-14.612 8.87-29.279 13-44a160 160 0 0 0-2-40c-6.23-13.276-15.4-24.11-27.5-32.5-22.2-20.267-32.04-45.434-29.5-75.5a825.775 825.775 0 0 0 9.5-78.5c-2.18-32.509-11.68-62.676-28.5-90.5a335.026 335.026 0 0 0-13.5-17c.65-.591 1.32-1.257 2-2a452.325 452.325 0 0 1 21 14.5l24 26c1.5.507 2.66.007 3.5-1.5.67-4 .67-8 0-12-4.5-15.353-9-30.686-13.5-46h3z
      "
      fill="#A651bE"
      stroke='#040302'
      stroke-width='16px'
      />
    <path
      d="
        M1219.5 658.5c3.48 1.143 7.14 1.31 11 .5-.54-.717-1.21-1.217-2-1.5-11.17-10.68-17.84-23.68-20-39-18.31 4.058-35.98 2.225-53-5.5a311.586 311.586 0 0 1-14.5-8.5 225.678 225.678 0 0 0-18.5 18.5c-2 .667-4 .667-6 0-3.55-3.49-4.71-7.657-3.5-12.5 6-5.498 11.5-11.498 16.5-18a131.49 131.49 0 0 1-12-23c-1.22-1.114-2.56-1.281-4-.5a368.17 368.17 0 0 0-28.5 13.5c-4.6-.947-6.43-3.781-5.5-8.5.17-1.833.33-3.667.5-5.5 1.93-1.38 3.76-2.88 5.5-4.5a487.539 487.539 0 0 0 25-11.5c.75-9.013 1.42-18.013 2-27 .93-1.068 1.27-2.401 1-4-5.67-.26-11.34-.593-17-1a63.099 63.099 0 0 1-19-3.5c-4.54-4.468-5.54-9.468-3-15 13.69.1 27.35.934 41 2.5 5.8-2.622 10.3-6.955 13.5-13 12.82-15.321 28.98-24.821 48.5-28.5a46.211 46.211 0 0 0-12-2c-9.67-.667-19.33-.667-29 0a192.725 192.725 0 0 1-25 3 101.991 101.991 0 0 0-13 4 105.05 105.05 0 0 0-16.5 2.5c-8.82-1.817-12.49-7.15-11-16 5.71-7.608 12.88-13.441 21.5-17.5a290.86 290.86 0 0 1 18-7 275.096 275.096 0 0 0-40-8c-10.58-7.033-10.58-14.033 0-21a45.424 45.424 0 0 0 12-4c48.71-4.604 95.05 3.396 139 24 23.47 11.817 41.97 28.983 55.5 51.5 3.82 7.244 3.32 14.077-1.5 20.5-3.33 2.295-7 2.961-11 2a282.39 282.39 0 0 0-31.5-16.5l-1.5 1c14.43 13.427 23.76 29.761 28 49a53.324 53.324 0 0 1 17-9.5 64.381 64.381 0 0 1 19 1 126.111 126.111 0 0 1 23.5 29.5c3.98-25.146 16.82-44.313 38.5-57.5a282.15 282.15 0 0 0-43 11.5c-6.33.171-10.16-2.829-11.5-9a16.172 16.172 0 0 1 0-8c12.94-18.932 30.11-32.765 51.5-41.5 37.03-14.073 75.37-19.406 115-16a569.978 569.978 0 0 1 55 10 66.693 66.693 0 0 1 17.5 10.5c4.18 6.745 2.68 11.911-4.5 15.5-16.05.061-32.05.728-48 2 15.81 6.482 28.64 16.649 38.5 30.5 1.38 5.967-.79 10.133-6.5 12.5-3.3.997-6.63 1.33-10 1a324.695 324.695 0 0 1-32-12 249.104 249.104 0 0 1-30-8 199.448 199.448 0 0 0-28-3c18.92 9.087 32.59 23.254 41 42.5a518.105 518.105 0 0 0 43 3.5 6.97 6.97 0 0 1 3.5 2.5c1.08 5.541-.75 9.708-5.5 12.5a136.26 136.26 0 0 1-36 .5c.31 10.199-.52 20.199-2.5 30 8.75 5.958 17.58 11.791 26.5 17.5 2.09 1.255 3.09 3.088 3 5.5a180.49 180.49 0 0 1-1.5 8c-1.18 1.857-2.85 2.857-5 3a1230.654 1230.654 0 0 0-29.5-18c-4 5.507-7.83 11.174-11.5 17-1.83 1.833-3.67 3.667-5.5 5.5a688.766 688.766 0 0 1 14.5 20.5c.67 2 .67 4 0 6-2.68 4.736-6.52 6.069-11.5 4-5.18-7.031-10.34-14.031-15.5-21-20.79 11.533-42.63 14.033-65.5 7.5a145.71 145.71 0 0 1-25.5-16.5c-4.12 20.087-14.62 35.921-31.5 47.5 27.41 5.691 54.08 14.024 80 25a171.208 171.208 0 0 1 40 29c21.64 19.623 39.47 42.123 53.5 67.5a704.918 704.918 0 0 0 22 39c2.81 6.082 4.15 12.416 4 19-.83.833-1.67 1.667-2.5 2.5-14.76 1.976-28.09-1.357-40-10l-4-1a3531.09 3531.09 0 0 1-70-71 91.98 91.98 0 0 0-23-16c-56.9-19.797-115.57-29.964-176-30.5-16.74-.347-32.74 2.819-48 9.5a48.962 48.962 0 0 0-9.5 6.5 758.128 758.128 0 0 1-59.5 71.5 223.054 223.054 0 0 1-21 14 46.125 46.125 0 0 0-11 4c-4.7 1.135-7.37-.699-8-5.5 10.13-34.927 24.63-67.927 43.5-99a411.35 411.35 0 0 1 34.5-37.5c25.86-19.17 55.03-27.67 87.5-25.5 6.84.318 13.67.651 20.5 1z
      "
      fill='#040302'
    />
    <path
      d="
        M1214.5 513.5c-5.46-1.237-11.13-1.904-17-2h-4c-11.46-1.744-23.12-2.744-35-3a689.342 689.342 0 0 1-26-3c17.42-25.546 41.42-35.046 72-28.5 15.22 6.553 27.38 16.72 36.5 30.5.89 2.784 2.06 5.45 3.5 8l-4 1a700.766 700.766 0 0 0-26-3z
      "
      fill="#EEAC40"
    />
    <path
      d="
        M1381.5 493.5c31.62-3.193 54.62 9.307 69 37.5a4718.147 4718.147 0 0 1-112-4.5c4.04-7.542 9.37-14.042 16-19.5 8.54-5.606 17.54-10.106 27-13.5z
      "
      fill="#ECAD41"
    />
    <path
      d="
        M1158.5 508.5c11.88.256 23.54 1.256 35 3-11.88-.263-23.55-1.263-35-3z
      "
      fill="#6d4f1f"
    />
    <path
      d="
        M1197.5 511.5c5.87.096 11.54.763 17 2-5.93.372-11.6-.295-17-2z
      "
      fill="#8d6727"
    />
    <path
      d="
        M1096.5 520.5c5.66.407 11.33.74 17 1 .27 1.599-.07 2.932-1 4v-3c-5.58.245-10.92-.422-16-2z
      "
      fill="#926b28"
    />
    <path
      d="
        M1228.5 533.5c6.45 1.436 13.11 2.103 20 2a4.949 4.949 0 0 1-.5 3c-14.35 13.703-26.01 29.37-35 47a37.626 37.626 0 0 0-2.5 8c-20.64 5.637-40.31 3.47-59-6.5-17.8-17.34-26.47-38.506-26-63.5a647.161 647.161 0 0 1 59 7c-6.69 15.783-2.69 28.616 12 38.5 21.82 1.51 31.32-8.657 28.5-30.5-3.53-4.097-2.37-5.763 3.5-5z
      "
      fill="#fbfbfb"
    />
    <path
      d="
        M1278.5 529.5a40.9 40.9 0 0 1 9 .5 36.04 36.04 0 0 0 7 4c21.52 25.564 31.69 55.064 30.5 88.5-13.41 37.161-38.91 48.995-76.5 35.5-30.61-19.257-37.44-45.09-20.5-77.5 13.03-20.859 29.86-37.859 50.5-51z
      "
      fill="#e697ba"
    />
    <path
      d="
        M1228.5 533.5c6.89-.103 13.55.564 20 2-6.89.103-13.55-.564-20-2z
      "
      fill="#626262"
    />
    <path
      d="
        M1330.5 546.5c22.01.056 44.01.556 66 1.5-11.64 12.058-11.97 24.391-1 37 15.9 9.32 27.73 5.487 35.5-11.5 2.66-8.721 1.5-16.888-3.5-24.5 8.99-.5 17.99-.666 27-.5-1.55 26.609-13.55 47.109-36 61.5-27.33 8.732-52.17 4.232-74.5-13.5-11.3-14.74-15.8-31.407-13.5-50z
      "
      fill="#fcfcfc"
    />
    <path
      d="
        M1228.5 657.5c.79.283 1.46.783 2 1.5-3.86.81-7.52.643-11-.5 3.21.31 6.21-.023 9-1z
      "
      fill="#684c1d"
    />
    <path
      d="
        M1199.5 668.5c16.32.97 32.66 1.803 49 2.5 19.67 2.276 39.33 4.609 59 7a354.701 354.701 0 0 1 78 25c23.28 14.938 43.78 33.104 61.5 54.5a787.804 787.804 0 0 1 43 70 23.731 23.731 0 0 1 3.5 11 427.79 427.79 0 0 1-16-4.5c-17.94-11.931-34.11-26.098-48.5-42.5a300.143 300.143 0 0 0-46.5-45.5 121.249 121.249 0 0 1-13-7c-46.4-15.512-94.06-25.179-143-29a579.484 579.484 0 0 0-64 1c-16.3 2.564-30.13 9.731-41.5 21.5a564.07 564.07 0 0 1-57.5 68.5c-4.58 3.54-9.41 6.706-14.5 9.5 11.83-46.848 35.33-86.681 70.5-119.5 12.74-9.921 27.07-16.588 43-20 12.5-.664 24.83-1.497 37-2.5z
      "
      fill="#575757"
    />
  </g>
</svg>