<?xml version="1.0" encoding="utf-8"?>
<svg
  viewBox="0 0 300 120"
  version="1.1"
  xmlns="http://www.w3.org/2000/svg"
  >
  <g fill="#1A1A1A" transform="translate(-65, -330)">
    <path d="
      M130.964,405.23
      c-0.332,4.956-0.546,9.573-0.984,14.168
      c-0.277,2.911-0.874,3.346-3.798,3.351
      c-3.182,0.005-6.365-0.145-9.548-0.163
      c-12.558-0.07-25.112,0.872-37.673,0.146
      c-1.34-0.078-2.948,0.356-3.709-1.151
      c-0.852-1.687,0.702-2.632,1.531-3.771
      c2.428-3.334,4.849-6.673,7.429-10.225
      c-2.801-3.156-5.576-6.292-8.362-9.417
      c-0.515-0.577-1.138-1.065-1.608-1.674
      c-1.164-1.506-0.807-2.776,1.012-2.97
      c3.925-0.419,7.871-0.658,11.814-0.879
      c2.206-0.124,4.423-0.064,6.768-0.089
      c0.154-3.145,0.157-5.978,0.475-8.775
      c0.231-2.026,0.774-4.037,1.398-5.985
      c0.225-0.702,0.988-1.398,1.682-1.758
      c6.527-3.388,13.485-5.622,20.585-7.417
      c13.463-3.403,27.14-5.516,40.975-6.635
      c14.927-1.207,29.864-2.273,44.845-2.417
      c2.544-0.024,5.092,0.617,7.644,0.907
      c0.737,0.084,1.499,0.092,2.234,0.008
      c2.551-0.291,5.11-1.001,7.641-0.901
      c12.38,0.49,24.762,1.041,37.124,1.868
      c8.407,0.562,16.83,1.292,25.161,2.521
      c13.029,1.922,25.959,4.45,38.275,9.363
      c2.072,0.827,4.105,1.769,6.088,2.79
      c0.619,0.319,1.28,0.993,1.465,1.637
      c0.614,2.132,1.205,4.303,1.457,6.499
      c0.301,2.628,0.245,5.296,0.356,8.284
      c2.345,0.031,4.563-0.017,6.771,0.106
      c3.943,0.219,7.889,0.45,11.814,0.861
      c1.877,0.196,2.256,1.402,1.139,2.918
      c-0.304,0.413-0.697,0.76-1.044,1.143
      c-2.943,3.246-5.884,6.494-8.921,9.846
      c0.399,0.651,0.703,1.24,1.091,1.767
      c2.398,3.255,4.811,6.499,7.229,9.74
      c0.584,0.783,1.265,1.716,0.602,2.554
      c-0.503,0.636-1.544,1.178-2.353,1.189
      c-8.258,0.116-16.518,0.139-24.778,0.137
      c-7.395-0.002-14.792-0.153-22.186-0.076
      c-4.805,0.051-5.382-0.273-5.71-5.027
      c-0.277-4.014-0.41-8.038-0.624-12.391
      c-2.464-0.466-5.135-1.032-7.827-1.469
      c-17.186-2.794-34.492-4.198-51.888-4.887
      c-12.139-0.481-24.269-0.62-36.401-0.295
      c-17.561,0.47-35.083,1.594-52.492,4.059
      C140.661,403.428,135.696,404.414,130.964,405.23z
      M325.667,409.296
      c0.28-1.141,0.559-1.945,0.665-2.771
      c0.284-2.218,0.542-4.442,0.725-6.671
      c0.48-5.83,0.985-11.66,1.344-17.498
      c0.221-3.599-0.027-3.814-3.325-5.083
      c-0.481-0.185-0.974-0.342-1.456-0.526
      c-7.345-2.807-15.021-4.42-22.681-5.989
      c-7.577-1.552-15.224-2.82-22.885-3.887
      c-5.615-0.782-11.307-1.004-16.959-1.533c-14.237-1.333-28.511-1.749-42.8-1.777
      c-2.488-0.005-4.976,0.266-7.463,0.255c-2.833-0.013-5.667-0.328-8.497-0.29c-14.373,0.194-28.721,0.94-43.054,2.029
      c-16.956,1.289-33.594,4.412-50.011,8.736c-4.135,1.089-8.145,2.655-11.99,3.928c-1.085,4.923,0.809,27.682,2.522,30.947
      c1.176-0.348,2.398-0.697,3.612-1.073c1.396-0.432,2.762-0.977,4.179-1.316c7.359-1.763,14.701-3.607,22.102-5.176
      c12.811-2.716,25.787-4.345,38.842-5.275c19.921-1.42,39.853-2.513,59.842-1.562c13.323,0.634,26.642,1.183,39.918,2.634
      c16.548,1.809,32.808,5.016,48.876,9.284C319.903,407.408,322.58,408.34,325.667,409.296z M345.279,419.274
      c-2.652-3.611-4.924-6.722-7.217-9.818c-1.103-1.488-1.173-2.026,0.058-3.366c2.558-2.784,5.184-5.505,7.783-8.251
      c0.512-0.541,1.028-1.078,1.98-2.076c-5.898-0.462-11.247-0.882-16.716-1.311c-0.096,0.496-0.232,0.983-0.279,1.478
      c-0.348,3.68-0.615,7.369-1.03,11.042c-0.558,4.945-2.138,6.688-6.899,7.966c-2.736,0.735-5.463,1.505-8.186,2.29
      c-0.741,0.214-1.453,0.531-2.172,0.816c-0.608,0.241-1.206,0.504-2.304,0.965C322.144,419.283,333.375,420.257,345.279,419.274z
      M79.933,419.28c11.847,0.957,23.135,0.045,34.451-0.473c-2.02-0.834-4.069-1.469-6.107-2.139c-3.259-1.07-6.517-2.144-9.762-3.256
      c-1.321-0.453-2.139-1.402-2.364-2.811c-0.445-2.796-0.959-5.583-1.309-8.391c-0.317-2.545-0.453-5.113-0.697-7.992
      c-5.537,1.338-11.086,0.274-16.534,1.852c3.027,3.215,5.89,6.288,8.79,9.326c1.926,2.018,1.917,2.372,0.289,4.542
      C84.483,412.879,82.374,415.895,79.933,419.28z"
      />
  </g>
</svg>