<?xml version="1.0" encoding="iso-8859-1"?>
<!-- Uploaded to: SVG Repo, www.svgrepo.com, Generator: SVG Repo Mixer Tools -->
<!DOCTYPE svg PUBLIC "-//W3C//DTD SVG 1.1//EN" "http://www.w3.org/Graphics/SVG/1.1/DTD/svg11.dtd">
<svg fill="#000000" height="800px" width="800px" version="1.1" id="Capa_1"
	xmlns="http://www.w3.org/2000/svg"
	xmlns:xlink="http://www.w3.org/1999/xlink" viewBox="0 0 235.999 235.999" xml:space="preserve">
	<g>
		<path d="M233.436,79.527C198.335,59.916,158.399,49.55,117.947,49.55c-19.354,0-38.599,2.383-57.255,7.01l-7.463-22.988
		c-0.553-1.703-1.975-2.98-3.727-3.349c-1.755-0.368-3.568,0.229-4.76,1.564L1.269,80.505c-1.357,1.521-1.655,3.715-0.753,5.543
		l22.828,46.231c0.616,1.249,1.726,2.183,3.061,2.58c0.467,0.138,0.945,0.207,1.423,0.207c0.889,0,1.771-0.237,2.549-0.699
		c17.003-10.077,35.613-17.077,54.948-20.799c-34.875,15.192-48.469,38.3-49.229,39.634c-0.821,1.441-0.875,3.196-0.142,4.685
		l15.021,30.504c0.593,1.205,1.646,2.12,2.921,2.54c0.51,0.168,1.038,0.251,1.564,0.251c0.791,0,1.579-0.188,2.295-0.558
		c18.719-9.67,38.97-14.574,60.191-14.574c8.808,0,17.452,0.855,25.894,2.538l-6.656,20.769c-0.591,1.845-0.063,3.865,1.354,5.186
		c0.943,0.877,2.166,1.34,3.408,1.34c0.627,0,1.258-0.118,1.861-0.36l37.675-15.118c1.129-0.453,2.054-1.302,2.602-2.388
		l15.346-30.424c1.128-2.235,0.429-4.959-1.636-6.375c-7.369-5.054-15.135-9.363-23.206-12.899
		c18.846-5.275,32.336-3.487,32.482-3.466c2.133,0.313,4.22-0.774,5.188-2.696l23.202-46.014
		C236.669,83.751,235.775,80.833,233.436,79.527z M46.406,44.942l4.62,14.23c-8.627,2.53-17.105,5.55-25.387,9.043L46.406,44.942z
		 M153.59,180.935c4.507,1.27,8.95,2.781,13.32,4.544l-16.956,6.804L153.59,180.935z M177.375,179.117
		c-18.652-8.671-38.621-13.067-59.428-13.067c-20.802,0-41.51,4.633-60.211,13.434l-10.869-22.071
		c21.193-13.675,45.679-20.897,71.08-20.897c25.187,0,49.484,7.088,70.555,20.541L177.375,179.117z M117.947,126.516
		c-18.046,0-35.666,3.386-52.122,9.92c14.29-10.705,36.649-21.981,69.442-25.126c18.266,1.842,36.094,6.602,52.794,14.052
		c-7.639,0.985-16.974,3.02-27.262,7.028c-0.318,0.124-0.615,0.277-0.891,0.455C146.44,128.666,132.328,126.516,117.947,126.516z
		 M205.695,122.967c-21.515-11.854-45.263-19.211-69.735-21.636c-0.102-0.014-0.204-0.018-0.307-0.026
		c-5.868-0.572-11.777-0.868-17.706-0.868c-30.861,0-61.165,7.815-87.989,22.647L11.611,85.928
		C44.163,68.661,80.849,59.55,117.947,59.55c37.141,0,73.824,9.121,106.405,26.416L205.695,122.967z"/>
	</g>
</svg>